<svg width="40" height="40" viewBox="0 0 40 40" fill="none" xmlns="http://www.w3.org/2000/svg">
<path d="M20.0002 39.5853C30.8167 39.5853 39.5853 30.8167 39.5853 20.0002C39.5853 9.1836 30.8167 0.415039 20.0002 0.415039C9.1836 0.415039 0.415039 9.1836 0.415039 20.0002C0.415039 30.8167 9.1836 39.5853 20.0002 39.5853Z" fill="#FFC84D"/>
<path d="M20.0001 33.2696C21.2756 33.2696 22.3097 32.2356 22.3097 30.96C22.3097 29.6844 21.2756 28.6504 20.0001 28.6504C18.7245 28.6504 17.6904 29.6844 17.6904 30.96C17.6904 32.2356 18.7245 33.2696 20.0001 33.2696Z" fill="#FF6D00"/>
<path d="M27.6621 16.3098H22.6311C22.1968 16.3098 21.802 16.0601 21.6152 15.6675C21.4285 15.2748 21.4847 14.8102 21.7592 14.4738L24.4873 11.127H22.4961C21.874 11.127 21.3711 10.623 21.3711 10.002C21.3711 9.38095 21.874 8.87695 22.4961 8.87695H26.8555C27.2897 8.87695 27.6846 9.1267 27.8713 9.51933C28.0581 9.91195 28.0018 10.3766 27.7273 10.713L24.9992 14.0598H27.661C28.2831 14.0598 28.786 14.5638 28.786 15.1848C28.786 15.8058 28.2831 16.3098 27.661 16.3098H27.6621Z" fill="#6391FF"/>
<path d="M37.1039 13.5553H30.31C29.8758 13.5553 29.4809 13.3055 29.2942 12.9129C29.1074 12.5203 29.1637 12.0556 29.4382 11.7193L33.6457 6.55664H30.1289C29.5068 6.55664 29.0039 6.05264 29.0039 5.43164C29.0039 4.81064 29.5068 4.30664 30.1289 4.30664H36.0138C36.448 4.30664 36.8429 4.55639 37.0297 4.94902C37.2164 5.34164 37.159 5.80627 36.8857 6.14264L32.6782 11.3053H37.1039C37.726 11.3053 38.2289 11.8093 38.2289 12.4303C38.2289 13.0513 37.726 13.5553 37.1039 13.5553Z" fill="#6391FF"/>
<path d="M11.2181 21.7143C10.9402 21.5771 10.6207 21.8178 10.6826 22.1216C11.0257 23.8079 12.477 25.0747 14.2151 25.0747C15.9532 25.0747 17.4044 23.8079 17.7476 22.1216C17.8094 21.8178 17.4899 21.5771 17.2121 21.7143C16.6057 22.0136 15.573 22.3904 14.2151 22.3904C12.8572 22.3904 11.8245 22.0136 11.2181 21.7143Z" fill="black"/>
<path d="M28.7824 21.7143C29.0603 21.5771 29.3798 21.8178 29.3179 22.1216C28.9748 23.8079 27.5235 25.0747 25.7854 25.0747C24.0473 25.0747 22.596 23.8079 22.2529 22.1216C22.191 21.8178 22.5105 21.5771 22.7884 21.7143C23.3948 22.0136 24.4275 22.3904 25.7854 22.3904C27.1421 22.3904 28.176 22.0136 28.7824 21.7143Z" fill="black"/>
</svg>
