<svg width="20" height="20" viewBox="0 0 20 20" fill="none" xmlns="http://www.w3.org/2000/svg">
<g id="favorite">
<mask id="mask0_875_2880" style="mask-type:alpha" maskUnits="userSpaceOnUse" x="0" y="0" width="20" height="20">
<rect id="Bounding box" width="20" height="20" fill="#D9D9D9"/>
</mask>
<g mask="url(#mask0_875_2880)">
<path id="favorite_2" d="M9.99984 17.5002L8.7915 16.4168C7.38873 15.1529 6.229 14.0627 5.31234 13.146C4.39567 12.2293 3.6665 11.4064 3.12484 10.6772C2.58317 9.94808 2.2047 9.27794 1.98942 8.66683C1.77414 8.05572 1.6665 7.43072 1.6665 6.79183C1.6665 5.48627 2.104 4.396 2.979 3.521C3.854 2.646 4.94428 2.2085 6.24984 2.2085C6.97206 2.2085 7.65956 2.36127 8.31234 2.66683C8.96511 2.97238 9.52762 3.40294 9.99984 3.9585C10.4721 3.40294 11.0346 2.97238 11.6873 2.66683C12.3401 2.36127 13.0276 2.2085 13.7498 2.2085C15.0554 2.2085 16.1457 2.646 17.0207 3.521C17.8957 4.396 18.3332 5.48627 18.3332 6.79183C18.3332 7.43072 18.2255 8.05572 18.0103 8.66683C17.795 9.27794 17.4165 9.94808 16.8748 10.6772C16.3332 11.4064 15.604 12.2293 14.6873 13.146C13.7707 14.0627 12.6109 15.1529 11.2082 16.4168L9.99984 17.5002ZM9.99984 15.2502C11.3332 14.0557 12.4304 13.0314 13.2915 12.1772C14.1526 11.3231 14.8332 10.58 15.3332 9.94808C15.8332 9.31613 16.1804 8.75363 16.3748 8.26058C16.5693 7.76752 16.6665 7.27794 16.6665 6.79183C16.6665 5.9585 16.3887 5.26405 15.8332 4.7085C15.2776 4.15294 14.5832 3.87516 13.7498 3.87516C13.0971 3.87516 12.4929 4.05919 11.9373 4.42725C11.3818 4.7953 10.9998 5.26405 10.7915 5.8335H9.20817C8.99984 5.26405 8.61789 4.7953 8.06234 4.42725C7.50678 4.05919 6.90262 3.87516 6.24984 3.87516C5.4165 3.87516 4.72206 4.15294 4.1665 4.7085C3.61095 5.26405 3.33317 5.9585 3.33317 6.79183C3.33317 7.27794 3.43039 7.76752 3.62484 8.26058C3.81928 8.75363 4.1665 9.31613 4.6665 9.94808C5.1665 10.58 5.84706 11.3231 6.70817 12.1772C7.56928 13.0314 8.6665 14.0557 9.99984 15.2502Z" fill="#57605D"/>
</g>
</g>
</svg>
