<svg width="25" height="25" viewBox="0 0 25 25" fill="none" xmlns="http://www.w3.org/2000/svg">
<g clip-path="url(#clip0_1033_1407)">
<path d="M9.5 19.4936C4.5 20.9936 4.5 16.9936 2.5 16.4936M16.5 22.4936V18.6236C16.5375 18.1468 16.4731 17.6674 16.311 17.2174C16.1489 16.7674 15.8929 16.357 15.56 16.0136C18.7 15.6636 22 14.4736 22 9.01359C21.9997 7.61742 21.4627 6.27479 20.5 5.26359C20.9559 4.0421 20.9236 2.69194 20.41 1.49359C20.41 1.49359 19.23 1.14359 16.5 2.97359C14.208 2.35241 11.792 2.35241 9.5 2.97359C6.77 1.14359 5.59 1.49359 5.59 1.49359C5.07638 2.69194 5.04414 4.0421 5.5 5.26359C4.53013 6.28229 3.99252 7.63705 4 9.04359C4 14.4636 7.3 15.6536 10.44 16.0436C10.111 16.3836 9.85726 16.789 9.69531 17.2335C9.53335 17.678 9.46681 18.1517 9.5 18.6236V22.4936" stroke="#899490" stroke-width="2.5" stroke-linecap="round" stroke-linejoin="round"/>
</g>
<defs>
<clipPath id="clip0_1033_1407">
<rect width="24" height="24" fill="white" transform="translate(0.5 0.493164)"/>
</clipPath>
</defs>
</svg>
