<svg width="20" height="20" viewBox="0 0 20 20" fill="none" xmlns="http://www.w3.org/2000/svg">
<rect width="20" height="20" fill="#D6D6D6"/>
<g id="&#236;&#139;&#156;&#236;&#149;&#136;1">
<path d="M-4508 -5005C-4508 -5006.1 -4507.1 -5007 -4506 -5007H29895C29896.1 -5007 29897 -5006.1 29897 -5005V16136C29897 16137.1 29896.1 16138 29895 16138H-4506C-4507.11 16138 -4508 16137.1 -4508 16136V-5005Z" fill="#B0B0B0"/>
<path d="M-4506 -5006H29895V-5008H-4506V-5006ZM29896 -5005V16136H29898V-5005H29896ZM29895 16137H-4506V16139H29895V16137ZM-4507 16136V-5005H-4509V16136H-4507ZM-4506 16137C-4506.55 16137 -4507 16136.6 -4507 16136H-4509C-4509 16137.7 -4507.66 16139 -4506 16139V16137ZM29896 16136C29896 16136.6 29895.6 16137 29895 16137V16139C29896.7 16139 29898 16137.7 29898 16136H29896ZM29895 -5006C29895.6 -5006 29896 -5005.55 29896 -5005H29898C29898 -5006.66 29896.7 -5008 29895 -5008V-5006ZM-4506 -5008C-4507.66 -5008 -4509 -5006.66 -4509 -5005H-4507C-4507 -5005.55 -4506.55 -5006 -4506 -5006V-5008Z" fill="black" fill-opacity="0.1"/>
<g id="list_&#234;&#179;&#181;&#234;&#181;&#172;&#237;&#133;&#156;_&#236;&#167;&#132;&#237;&#150;&#137;&#235;&#166;&#172;&#236;&#138;&#164;&#237;&#138;&#184;(&#234;&#184;&#176;&#235;&#179;&#184;)">
<rect width="1920" height="2140" transform="translate(-848 -454)" fill="white"/>
<g id="Frame 1000007153">
<g id="Frame 1000007150">
<g id="co pursue">
<g id="Frame 1000007134">
<rect x="-399.5" y="-28.5" width="495" height="278" rx="7.5" fill="white"/>
<rect x="-399.5" y="-28.5" width="495" height="278" rx="7.5" stroke="#BFC5C3"/>
<g id="like">
<rect x="-15.5" y="-8.5" width="89" height="37" rx="18.5" fill="white"/>
<rect x="-15.5" y="-8.5" width="89" height="37" rx="18.5" stroke="#008575"/>
<g id="favorite">
<mask id="mask0_612_1914" style="mask-type:alpha" maskUnits="userSpaceOnUse" x="0" y="0" width="20" height="20">
<rect id="Bounding box" width="20" height="20" fill="#D9D9D9"/>
</mask>
<g mask="url(#mask0_612_1914)">
<path id="favorite_2" d="M9.99984 17.5002L8.7915 16.4168C7.38873 15.1529 6.229 14.0627 5.31234 13.146C4.39567 12.2293 3.6665 11.4064 3.12484 10.6772C2.58317 9.94808 2.2047 9.27794 1.98942 8.66683C1.77414 8.05572 1.6665 7.43072 1.6665 6.79183C1.6665 5.48627 2.104 4.396 2.979 3.521C3.854 2.646 4.94428 2.2085 6.24984 2.2085C6.97206 2.2085 7.65956 2.36127 8.31234 2.66683C8.96511 2.97238 9.52762 3.40294 9.99984 3.9585C10.4721 3.40294 11.0346 2.97238 11.6873 2.66683C12.3401 2.36127 13.0276 2.2085 13.7498 2.2085C15.0554 2.2085 16.1457 2.646 17.0207 3.521C17.8957 4.396 18.3332 5.48627 18.3332 6.79183C18.3332 7.43072 18.2255 8.05572 18.0103 8.66683C17.795 9.27794 17.4165 9.94808 16.8748 10.6772C16.3332 11.4064 15.604 12.2293 14.6873 13.146C13.7707 14.0627 12.6109 15.1529 11.2082 16.4168L9.99984 17.5002Z" fill="#008575"/>
</g>
</g>
</g>
</g>
</g>
</g>
</g>
</g>
</g>
</svg>
