<svg width="81" height="39" viewBox="0 0 81 39" fill="none" xmlns="http://www.w3.org/2000/svg">
<path d="M33.9508 15.9408C37.5653 15.5163 38.0373 13.5284 38.0373 9.93954C38.0373 5.81371 36.6788 4.50643 32.3014 4.50643H28.0237C26.4648 4.50643 25.1063 0.506836 22.7415 0.506836H15.5464C13.1816 0.506836 11.8744 4.50643 10.3137 4.50643H6.03781C1.6604 4.50643 0.201262 5.61336 0.201262 9.93954C0.201262 13.5787 0.773024 15.5675 4.54391 15.9536C1.71437 17.1154 0 20.127 0 27.0952C0 35.914 3.3208 38.0629 7.89947 38.2249C11.4215 38.385 14.5905 38.4929 17.71 38.4929C21.8368 38.4929 25.862 38.4398 30.7425 38.2249C34.818 38.0629 37.6357 36.3431 38.341 29.4078C38.3904 28.6558 38.3904 27.741 38.3904 26.9332C38.3895 20.1069 36.6577 17.0953 33.9508 15.9408ZM27.2433 25.755L21.8139 27.903L19.665 33.3342C19.589 33.5282 19.4015 33.6544 19.1948 33.6544C18.988 33.6544 18.8005 33.5282 18.7245 33.3342L16.5765 27.903L11.1471 25.755C10.9541 25.679 10.8269 25.4924 10.8269 25.2847C10.8269 25.0771 10.9531 24.8904 11.1471 24.8145L16.5765 22.6647L18.7245 17.2343C18.8005 17.0413 18.988 16.9141 19.1948 16.9141C19.4015 16.9141 19.589 17.0413 19.665 17.2343L21.8139 22.6647L27.2433 24.8145C27.4364 24.8904 27.5635 25.0771 27.5635 25.2847C27.5635 25.4924 27.4364 25.679 27.2433 25.755Z" fill="#899490"/>
<path d="M80.4995 34.168C80.4995 36.3654 79.2215 37.7449 77.2793 37.6434C68.2839 37.1311 63.5808 34.372 60.4631 30.1812C57.3957 34.4232 52.6423 37.132 43.6459 37.6434C41.7038 37.7449 40.4258 36.3663 40.4258 34.168V26.6527C40.4258 24.6593 41.6013 23.1773 43.5947 22.7684C49.8823 21.388 51.6707 15.7664 51.6707 8.91621V4.93034C51.6707 2.78234 52.9488 1.35156 54.8909 1.35156H66.0343C67.9765 1.35156 69.2545 2.78234 69.2545 4.93034V8.91621C69.2545 15.7655 71.043 21.388 77.3305 22.7684C79.3239 23.1773 80.4995 24.6593 80.4995 26.6527V34.168Z" fill="#899490"/>
</svg>
