<svg width="119" height="56" viewBox="0 0 119 56" fill="none" xmlns="http://www.w3.org/2000/svg">
<path d="M50.0387 22.7543C55.3658 22.1286 56.0616 19.1987 56.0616 13.9093C56.0616 7.82841 54.0593 5.90167 47.6076 5.90167H41.3029C39.0054 5.90167 37.0031 0.00683594 33.5178 0.00683594H22.9133C19.4279 0.00683594 17.5011 5.90167 15.2009 5.90167H8.89888C2.44719 5.90167 0.296631 7.53313 0.296631 13.9093C0.296631 19.2729 1.13933 22.2041 6.69708 22.7731C2.52674 24.4855 0 28.9241 0 39.1943C0 52.192 4.89438 55.3592 11.6427 55.5978C16.8337 55.8338 21.5043 55.9929 26.102 55.9929C32.1843 55.9929 38.1169 55.9147 45.3101 55.5978C51.3169 55.3592 55.4697 52.8244 56.5092 42.6028C56.582 41.4945 56.582 40.1462 56.582 38.9556C56.5807 28.8945 54.0283 24.4558 50.0387 22.7543ZM40.1528 37.219L32.1506 40.3848L28.9834 48.3898C28.8715 48.6756 28.5951 48.8617 28.2903 48.8617C27.9856 48.8617 27.7092 48.6756 27.5973 48.3898L24.4315 40.3848L16.4292 37.219C16.1447 37.1071 15.9573 36.832 15.9573 36.5259C15.9573 36.2199 16.1434 35.9448 16.4292 35.8329L24.4315 32.6644L27.5973 24.6608C27.7092 24.3763 27.9856 24.1889 28.2903 24.1889C28.5951 24.1889 28.8715 24.3763 28.9834 24.6608L32.1506 32.6644L40.1528 35.8329C40.4373 35.9448 40.6247 36.2199 40.6247 36.5259C40.6247 36.832 40.4373 37.1071 40.1528 37.219Z" fill="#1AAF9A"/>
<path d="M118.645 49.6187C118.645 52.8574 116.761 54.8906 113.899 54.7409C100.641 53.9859 93.7092 49.9194 89.1142 43.7427C84.5933 49.9949 77.5874 53.9872 64.3281 54.7409C61.4656 54.8906 59.582 52.8587 59.582 49.6187V38.5423C59.582 35.6043 61.3146 33.42 64.2526 32.8174C73.5196 30.7827 76.1555 22.4973 76.1555 12.4012V6.52656C76.1555 3.36072 78.0391 1.25195 80.9016 1.25195H97.3254C100.188 1.25195 102.071 3.36072 102.071 6.52656V12.4012C102.071 22.496 104.707 30.7827 113.974 32.8174C116.912 33.42 118.645 35.6043 118.645 38.5423V49.6187Z" fill="#1AAF9A"/>
</svg>
