<svg width="80" height="78" viewBox="0 0 80 78" fill="none" xmlns="http://www.w3.org/2000/svg">
<path d="M1.25885 26.7802C0.364628 29.1476 0.302528 31.6262 0.930246 33.8962C1.87493 37.3123 4.38039 40.2486 7.9368 41.6008C7.94477 41.6053 7.95298 41.6094 7.96143 41.613C7.96979 41.6163 7.97815 41.6196 7.98642 41.6226L7.99936 41.6272C8.00805 41.6304 8.01665 41.6333 8.02491 41.6363L20.7688 46.377L12.2713 56.9918C12.2618 57.0025 12.2551 57.0129 12.2473 57.0231C12.2437 57.028 12.24 57.0325 12.2358 57.0376C8.28073 62.0243 9.11068 69.275 14.0954 73.2208C19.0812 77.1722 26.3803 76.3455 30.3865 71.3926L30.3968 71.3813C30.4056 71.3718 30.412 71.3644 30.418 71.3539L38.9261 60.7542L46.4231 72.0426C49.9446 77.3453 57.1629 78.7988 62.506 75.2789C67.8488 71.7595 69.3351 64.5807 65.8175 59.2709L58.3372 47.9783L71.4759 44.3389C77.6442 42.6268 81.2861 36.2476 79.5907 30.1166C77.8953 23.9857 71.4932 20.384 65.3162 22.0861L52.184 25.7057L52.7995 12.174C52.7982 12.1691 52.7976 12.1628 52.7977 12.1563C52.7976 12.1479 52.7986 12.139 52.8 12.1319C53.0703 5.78662 48.1131 0.413836 41.7334 0.14178C35.3541 -0.130399 29.9245 4.79687 29.6032 11.1322C29.603 11.138 29.6024 11.1434 29.6017 11.1486L29.5995 11.1712L29.5987 11.1814L28.9651 24.7121L16.2199 19.9897C16.2135 19.9885 16.2068 19.9859 16.2001 19.9833C16.1933 19.9806 16.1866 19.978 16.1802 19.9768C10.197 17.7804 3.50617 20.8285 1.25885 26.7802Z" fill="#008575"/>
</svg>
