<svg width="94" height="94" viewBox="0 0 94 94" fill="none" xmlns="http://www.w3.org/2000/svg">
<path d="M59.606 0.794156C59.7318 -0.264719 61.2683 -0.264719 61.394 0.794156L62.448 9.67716C63.809 21.1475 72.8525 30.191 84.3228 31.552L93.2057 32.606C94.2647 32.7318 94.2647 34.2683 93.2057 34.394L84.3228 35.448C72.8525 36.809 63.809 45.8525 62.448 57.3228L61.394 66.2057C61.2683 67.2647 59.7318 67.2647 59.606 66.2057L58.552 57.3228C57.191 45.8525 48.1475 36.809 36.6772 35.448L27.7942 34.394C26.7353 34.2683 26.7353 32.7318 27.7942 32.606L36.6772 31.552C48.1475 30.191 57.191 21.1475 58.552 9.67716L59.606 0.794156Z" fill="#00B8A2"/>
<path d="M20.9262 51.5097C21.0069 50.8301 21.9931 50.8301 22.0738 51.5097L22.7502 57.2107C23.6237 64.5723 29.4277 70.3763 36.7892 71.2498L42.4903 71.9262C43.1699 72.0069 43.1699 72.9931 42.4903 73.0738L36.7892 73.7502C29.4277 74.6237 23.6237 80.4277 22.7502 87.7892L22.0738 93.4903C21.9931 94.1699 21.0069 94.1699 20.9262 93.4903L20.2498 87.7892C19.3763 80.4277 13.5723 74.6237 6.21071 73.7502L0.509682 73.0738C-0.169894 72.9931 -0.169894 72.0069 0.509682 71.9262L6.21071 71.2498C13.5723 70.3763 19.3763 64.5723 20.2498 57.2107L20.9262 51.5097Z" fill="#00B8A2"/>
</svg>
