<?xml version="1.0" encoding="UTF-8"?>
<svg id="_레이어_1" data-name="레이어 1" xmlns="http://www.w3.org/2000/svg" version="1.1" viewBox="0 0 94 94">
  <defs>
    <style>
      .cls-1 {
        fill: #fff;
        stroke-width: 0px;
      }
    </style>
  </defs>
  <path class="cls-1" d="M59.6.8c.1-1.1,1.7-1.1,1.8,0l1.1,8.9c1.4,11.5,10.4,20.5,21.9,21.9l8.9,1.1c1.1.1,1.1,1.7,0,1.8l-8.9,1.1c-11.5,1.4-20.5,10.4-21.9,21.9l-1.1,8.9c-.1,1.1-1.7,1.1-1.8,0l-1.1-8.9c-1.4-11.5-10.4-20.5-21.9-21.9l-8.9-1.1c-1.1-.1-1.1-1.7,0-1.8l8.9-1.1c11.5-1.4,20.5-10.4,21.9-21.9l1.1-8.9Z"/>
  <path class="cls-1" d="M20.9,51.5c0-.7,1.1-.7,1.1,0l.7,5.7c.9,7.4,6.7,13.2,14,14l5.7.7c.7,0,.7,1.1,0,1.1l-5.7.7c-7.4.9-13.2,6.7-14,14l-.7,5.7c0,.7-1.1.7-1.1,0l-.7-5.7c-.9-7.4-6.7-13.2-14-14l-5.7-.7c-.7,0-.7-1.1,0-1.1l5.7-.7c7.4-.9,13.2-6.7,14-14l.7-5.7Z"/>
</svg>