<svg width="25" height="24" viewBox="0 0 25 24" fill="none" xmlns="http://www.w3.org/2000/svg">
<path d="M18.7896 10.467C20.3302 10.2841 20.5314 9.42778 20.5314 7.88178C20.5314 6.10445 19.9524 5.5413 18.0865 5.5413H16.2632C15.5987 5.5413 15.0197 3.81836 14.0117 3.81836H10.9449C9.93688 3.81836 9.37966 5.5413 8.71443 5.5413H6.89187C5.02603 5.5413 4.40408 6.01815 4.40408 7.88178C4.40408 9.44945 4.64779 10.3062 6.25511 10.4725C5.04904 10.973 4.3183 12.2703 4.3183 15.2721C4.3183 19.0711 5.73376 19.9968 7.68539 20.0665C9.18664 20.1355 10.5374 20.182 11.8671 20.182C13.6261 20.182 15.3418 20.1591 17.4221 20.0665C19.1592 19.9968 20.3602 19.2559 20.6609 16.2683C20.6819 15.9444 20.6819 15.5503 20.6819 15.2023C20.6815 12.2617 19.9434 10.9643 18.7896 10.467ZM15.9306 14.6947L13.6163 15.6201L12.7003 17.9597C12.668 18.0433 12.588 18.0977 12.4999 18.0977C12.4118 18.0977 12.3319 18.0433 12.2995 17.9597L11.3839 15.6201L9.06966 14.6947C8.98738 14.662 8.93318 14.5816 8.93318 14.4922C8.93318 14.4027 8.98699 14.3223 9.06966 14.2896L11.3839 13.3635L12.2995 11.0242C12.3319 10.9411 12.4118 10.8863 12.4999 10.8863C12.588 10.8863 12.668 10.9411 12.7003 11.0242L13.6163 13.3635L15.9306 14.2896C16.0128 14.3223 16.0671 14.4027 16.0671 14.4922C16.0671 14.5816 16.0128 14.662 15.9306 14.6947Z" fill="white"/>
<path fill-rule="evenodd" clip-rule="evenodd" d="M20.6609 16.2681C20.3602 19.2557 19.1592 19.9966 17.4221 20.0663C15.3418 20.159 13.6261 20.1818 11.8671 20.1818C10.5374 20.1818 9.18665 20.1353 7.6854 20.0663C5.73377 19.9966 4.3183 19.0709 4.3183 15.2719C4.3183 13.8088 4.49192 12.7506 4.80957 11.9922C5.1436 11.1948 5.63691 10.7289 6.25511 10.4723C5.25864 10.3692 4.78627 10.0007 4.57115 9.36201C4.43929 8.97047 4.40409 8.47737 4.40409 7.8816C4.40409 6.01797 5.02604 5.54113 6.89188 5.54113H8.71444C9.01262 5.54113 9.2891 5.19495 9.5942 4.81295C9.96977 4.34271 10.3887 3.81818 10.9449 3.81818H14.0117C14.568 3.81818 14.9937 4.34299 15.3751 4.81332C15.6849 5.19518 15.9655 5.54113 16.2632 5.54113H18.0865C19.9524 5.54113 20.5314 6.10427 20.5314 7.8816C20.5314 8.44878 20.5043 8.92313 20.394 9.30546C20.2035 9.96528 19.765 10.351 18.7896 10.4668C19.3823 10.7223 19.8653 11.1889 20.195 11.9809C20.5071 12.7307 20.6818 13.7721 20.6819 15.2021C20.6819 15.5501 20.6819 15.9442 20.6609 16.2681ZM13.6163 13.3633L12.7004 11.024C12.668 10.9409 12.5881 10.8861 12.4999 10.8861C12.4118 10.8861 12.3319 10.9409 12.2995 11.024L11.3839 13.3633L9.06967 14.2894C8.987 14.3222 8.93319 14.4025 8.93319 14.492C8.93319 14.5815 8.98739 14.6619 9.06967 14.6946L11.3839 15.6199L12.2995 17.9596C12.3319 18.0431 12.4118 18.0975 12.4999 18.0975C12.5881 18.0975 12.668 18.0431 12.7004 17.9596L13.6163 15.6199L15.9306 14.6946C16.0129 14.6619 16.0671 14.5815 16.0671 14.492C16.0671 14.4025 16.0129 14.3222 15.9306 14.2894L13.6163 13.3633ZM21.6643 10.8308C22.2594 11.9788 22.4999 13.4714 22.5001 15.2019V15.2304C22.5001 15.5592 22.5002 16.0024 22.4752 16.3861L22.4732 16.4182L22.4699 16.4502C22.3019 18.1201 21.8534 19.5376 20.88 20.5328C19.8663 21.5691 18.5915 21.8385 17.4993 21.8829C15.3865 21.9769 13.6436 22 11.8671 22C10.4989 22 9.11883 21.9522 7.61053 21.883C6.3815 21.8376 4.93757 21.5046 3.87512 20.2338C2.87156 19.0335 2.50012 17.3319 2.50012 15.2719C2.50012 13.6562 2.69167 12.2956 3.16871 11.2053C3.2182 11.0922 3.2706 10.9825 3.32583 10.8761C3.27267 10.8031 3.22168 10.7267 3.17303 10.6466C2.6182 9.73349 2.58591 8.64591 2.58591 7.8816C2.58591 6.86368 2.72804 5.5706 3.72756 4.66506C4.67268 3.80882 5.94253 3.72294 6.89188 3.72294H8.13728C8.17818 3.67188 8.22728 3.61065 8.28757 3.53612C8.4663 3.31519 8.76017 2.95897 9.1373 2.66092C9.53013 2.35046 10.1419 2 10.9449 2H14.0117C14.8126 2 15.4238 2.34879 15.8158 2.65551C16.1935 2.95105 16.4898 3.30466 16.6712 3.52559C16.7366 3.60511 16.7891 3.66964 16.8324 3.72294H18.0865C19.0836 3.72294 20.3423 3.84452 21.268 4.73339C22.2168 5.64452 22.3496 6.90508 22.3496 7.8816C22.3496 8.61689 22.3289 9.68062 21.8215 10.5793C21.7719 10.6672 21.7194 10.751 21.6643 10.8308ZM17.0508 3.97858C17.0485 3.97632 17.0462 3.97404 17.0439 3.97174C17.0828 4.00304 17.0861 4.01349 17.0508 3.97858ZM7.91623 3.98622C7.88326 4.0192 7.88657 4.00911 7.92366 3.97871C7.92118 3.98124 7.91871 3.98374 7.91623 3.98622Z" fill="#161817"/>
</svg>
