<svg width="25" height="24" viewBox="0 0 25 24" fill="none" xmlns="http://www.w3.org/2000/svg">
<path d="M20.1872 10.1261C22.0702 9.90261 22.3162 8.85596 22.3162 6.9664C22.3162 4.79411 21.6084 4.10582 19.328 4.10582H17.0994C16.2873 4.10582 15.5796 2 14.3476 2H10.5993C9.36727 2 8.68623 4.10582 7.87317 4.10582H5.6456C3.36513 4.10582 2.60497 4.68863 2.60497 6.9664C2.60497 8.88245 2.90284 9.92958 4.86733 10.1328C3.39325 10.7446 2.50012 12.3302 2.50012 15.999C2.50012 20.6422 4.23014 21.7736 6.61546 21.8589C8.45032 21.9432 10.1012 22 11.7264 22C13.8763 22 15.9733 21.9721 18.5158 21.8589C20.639 21.7736 22.1069 20.8681 22.4744 17.2166C22.5001 16.8207 22.5001 16.339 22.5001 15.9137C22.4996 12.3196 21.5975 10.734 20.1872 10.1261ZM16.6929 15.2934L13.8644 16.4243L12.7449 19.2839C12.7053 19.386 12.6076 19.4525 12.4999 19.4525C12.3922 19.4525 12.2945 19.386 12.2549 19.2839L11.1359 16.4243L8.30734 15.2934C8.20678 15.2534 8.14054 15.1551 8.14054 15.0458C8.14054 14.9364 8.20631 14.8382 8.30734 14.7982L11.1359 13.6663L12.2549 10.8072C12.2945 10.7055 12.3922 10.6386 12.4999 10.6386C12.6076 10.6386 12.7053 10.7055 12.7449 10.8072L13.8644 13.6663L16.6929 14.7982C16.7935 14.8382 16.8597 14.9364 16.8597 15.0458C16.8597 15.1551 16.7935 15.2534 16.6929 15.2934Z" fill="#00B8A2"/>
</svg>
