<svg width="25" height="24" viewBox="0 0 25 24" fill="none" xmlns="http://www.w3.org/2000/svg">
<path d="M12.3833 20.9999L10.9333 19.6999C9.24997 18.1832 7.8583 16.8749 6.7583 15.7749C5.6583 14.6749 4.7833 13.6916 4.1333 12.8249C3.4833 11.9416 3.02497 11.1332 2.7583 10.3999C2.5083 9.66657 2.3833 8.91657 2.3833 8.1499C2.3833 6.58324 2.9083 5.2749 3.9583 4.2249C5.0083 3.1749 6.31663 2.6499 7.8833 2.6499C8.74997 2.6499 9.57497 2.83324 10.3583 3.1999C11.1416 3.56657 11.8166 4.08324 12.3833 4.7499C12.95 4.08324 13.625 3.56657 14.4083 3.1999C15.1916 2.83324 16.0166 2.6499 16.8833 2.6499C18.45 2.6499 19.7583 3.1749 20.8083 4.2249C21.8583 5.2749 22.3833 6.58324 22.3833 8.1499C22.3833 8.91657 22.25 9.66657 21.9833 10.3999C21.7333 11.1332 21.2833 11.9416 20.6333 12.8249C19.9833 13.6916 19.1083 14.6749 18.0083 15.7749C16.9083 16.8749 15.5166 18.1832 13.8333 19.6999L12.3833 20.9999ZM12.3833 18.2999C13.9833 16.8666 15.3 15.6416 16.3333 14.6249C17.3666 13.5916 18.1833 12.6999 18.7833 11.9499C19.3833 11.1832 19.8 10.5082 20.0333 9.9249C20.2666 9.3249 20.3833 8.73324 20.3833 8.1499C20.3833 7.1499 20.05 6.31657 19.3833 5.6499C18.7166 4.98324 17.8833 4.6499 16.8833 4.6499C16.1 4.6499 15.375 4.8749 14.7083 5.3249C14.0416 5.75824 13.5833 6.31657 13.3333 6.9999H11.4333C11.1833 6.31657 10.725 5.75824 10.0583 5.3249C9.39163 4.8749 8.66664 4.6499 7.8833 4.6499C6.8833 4.6499 6.04997 4.98324 5.3833 5.6499C4.71663 6.31657 4.3833 7.1499 4.3833 8.1499C4.3833 8.73324 4.49997 9.3249 4.7333 9.9249C4.96663 10.5082 5.3833 11.1832 5.9833 11.9499C6.5833 12.6999 7.39997 13.5916 8.4333 14.6249C9.46663 15.6416 10.7833 16.8666 12.3833 18.2999Z" fill="#00B8A2"/>
</svg>
