<svg width="25" height="24" viewBox="0 0 25 24" fill="none" xmlns="http://www.w3.org/2000/svg">
<path d="M12.3834 20.9999L10.9334 19.6999C9.25003 18.1832 7.85836 16.8749 6.75836 15.7749C5.65836 14.6749 4.78336 13.6916 4.13336 12.8249C3.48336 11.9416 3.02503 11.1332 2.75836 10.3999C2.50836 9.66657 2.38336 8.91657 2.38336 8.1499C2.38336 6.58324 2.90836 5.2749 3.95836 4.2249C5.00836 3.1749 6.3167 2.6499 7.88336 2.6499C8.75003 2.6499 9.57503 2.83324 10.3584 3.1999C11.1417 3.56657 11.8167 4.08324 12.3834 4.7499C12.95 4.08324 13.625 3.56657 14.4084 3.1999C15.1917 2.83324 16.0167 2.6499 16.8834 2.6499C18.45 2.6499 19.7584 3.1749 20.8084 4.2249C21.8584 5.2749 22.3834 6.58324 22.3834 8.1499C22.3834 8.91657 22.25 9.66657 21.9834 10.3999C21.7334 11.1332 21.2834 11.9416 20.6334 12.8249C19.9834 13.6916 19.1084 14.6749 18.0084 15.7749C16.9084 16.8749 15.5167 18.1832 13.8334 19.6999L12.3834 20.9999ZM12.3834 18.2999C13.9834 16.8666 15.3 15.6416 16.3334 14.6249C17.3667 13.5916 18.1834 12.6999 18.7834 11.9499C19.3834 11.1832 19.8 10.5082 20.0334 9.9249C20.2667 9.3249 20.3834 8.73324 20.3834 8.1499C20.3834 7.1499 20.05 6.31657 19.3834 5.6499C18.7167 4.98324 17.8834 4.6499 16.8834 4.6499C16.1 4.6499 15.375 4.8749 14.7084 5.3249C14.0417 5.75824 13.5834 6.31657 13.3334 6.9999H11.4334C11.1834 6.31657 10.725 5.75824 10.0584 5.3249C9.3917 4.8749 8.6667 4.6499 7.88336 4.6499C6.88336 4.6499 6.05003 4.98324 5.38336 5.6499C4.7167 6.31657 4.38336 7.1499 4.38336 8.1499C4.38336 8.73324 4.50003 9.3249 4.73336 9.9249C4.9667 10.5082 5.38336 11.1832 5.98336 11.9499C6.58336 12.6999 7.40003 13.5916 8.43336 14.6249C9.4667 15.6416 10.7834 16.8666 12.3834 18.2999Z" fill="#1D1B20"/>
</svg>
