<svg width="25" height="24" viewBox="0 0 25 24" fill="none" xmlns="http://www.w3.org/2000/svg">
<path d="M5.38333 19H6.80833L16.5833 9.225L15.1583 7.8L5.38333 17.575V19ZM3.38333 21V16.75L16.5833 3.575C16.7833 3.39167 17.0042 3.25 17.2458 3.15C17.4875 3.05 17.7417 3 18.0083 3C18.275 3 18.5333 3.05 18.7833 3.15C19.0333 3.25 19.25 3.4 19.4333 3.6L20.8083 5C21.0083 5.18333 21.1542 5.4 21.2458 5.65C21.3375 5.9 21.3833 6.15 21.3833 6.4C21.3833 6.66667 21.3375 6.92083 21.2458 7.1625C21.1542 7.40417 21.0083 7.625 20.8083 7.825L7.63333 21H3.38333ZM15.8583 8.525L15.1583 7.8L16.5833 9.225L15.8583 8.525Z" fill="#161817"/>
</svg>
