<svg width="25" height="24" viewBox="0 0 25 24" fill="none" xmlns="http://www.w3.org/2000/svg">
<path d="M12.3833 12C11.2833 12 10.3416 11.6083 9.5583 10.825C8.77497 10.0417 8.3833 9.1 8.3833 8C8.3833 6.9 8.77497 5.95833 9.5583 5.175C10.3416 4.39167 11.2833 4 12.3833 4C13.4833 4 14.425 4.39167 15.2083 5.175C15.9916 5.95833 16.3833 6.9 16.3833 8C16.3833 9.1 15.9916 10.0417 15.2083 10.825C14.425 11.6083 13.4833 12 12.3833 12ZM4.3833 20V17.2C4.3833 16.6333 4.52913 16.1125 4.8208 15.6375C5.11247 15.1625 5.49997 14.8 5.9833 14.55C7.01663 14.0333 8.06663 13.6458 9.1333 13.3875C10.2 13.1292 11.2833 13 12.3833 13C13.4833 13 14.5666 13.1292 15.6333 13.3875C16.7 13.6458 17.75 14.0333 18.7833 14.55C19.2666 14.8 19.6541 15.1625 19.9458 15.6375C20.2375 16.1125 20.3833 16.6333 20.3833 17.2V20H4.3833ZM6.3833 18H18.3833V17.2C18.3833 17.0167 18.3375 16.85 18.2458 16.7C18.1541 16.55 18.0333 16.4333 17.8833 16.35C16.9833 15.9 16.075 15.5625 15.1583 15.3375C14.2416 15.1125 13.3166 15 12.3833 15C11.45 15 10.525 15.1125 9.6083 15.3375C8.69163 15.5625 7.7833 15.9 6.8833 16.35C6.7333 16.4333 6.61247 16.55 6.5208 16.7C6.42913 16.85 6.3833 17.0167 6.3833 17.2V18ZM12.3833 10C12.9333 10 13.4041 9.80417 13.7958 9.4125C14.1875 9.02083 14.3833 8.55 14.3833 8C14.3833 7.45 14.1875 6.97917 13.7958 6.5875C13.4041 6.19583 12.9333 6 12.3833 6C11.8333 6 11.3625 6.19583 10.9708 6.5875C10.5791 6.97917 10.3833 7.45 10.3833 8C10.3833 8.55 10.5791 9.02083 10.9708 9.4125C11.3625 9.80417 11.8333 10 12.3833 10Z" fill="#1D1B20"/>
</svg>
