<svg width="23" height="22" viewBox="0 0 23 22" fill="none" xmlns="http://www.w3.org/2000/svg">
<path d="M21.3569 15.7775L21.3551 15.7951C21.18 17.5351 20.7269 18.8274 19.8862 19.6868C19.0234 20.569 17.918 20.8285 16.8398 20.8721C16.839 20.8721 16.8383 20.8721 16.8376 20.8722L16.7975 19.873C14.5091 19.9749 12.6218 20 10.6869 20C9.22429 20 7.73848 19.9488 6.0871 19.873L21.3569 15.7775ZM21.3569 15.7775L21.358 15.7598C21.3833 15.3709 21.3833 14.911 21.3833 14.5403V14.5224V14.5222C21.383 12.3098 21.0147 10.6837 20.2233 9.60762C20.4352 9.42719 20.6176 9.20842 20.766 8.94556C21.1787 8.2147 21.2177 7.29932 21.2177 6.46976C21.2177 5.44391 21.0651 4.42879 20.3353 3.72804C19.6183 3.03954 18.5898 2.89524 17.5284 2.89524H15.6938C15.6913 2.89283 15.6887 2.89035 15.6861 2.88777C15.5862 2.78904 15.4875 2.66749 15.3454 2.49259C15.3012 2.43816 15.2528 2.37856 15.1988 2.31288C15.0017 2.07292 14.7355 1.75998 14.4143 1.50859C14.0852 1.25106 13.6252 1 13.046 1H9.67252C9.09227 1 8.63271 1.25198 8.30425 1.51157C7.98442 1.76434 7.72107 2.07871 7.52694 2.31868C7.4737 2.3845 7.426 2.44412 7.38249 2.49851C7.24262 2.67334 7.1461 2.79399 7.0481 2.89198C7.047 2.89308 7.04591 2.89417 7.04483 2.89524H5.21423C4.17898 2.89524 3.13849 3.00803 2.40488 3.67266C1.64135 4.3644 1.47767 5.39741 1.47767 6.46976C1.47767 7.32124 1.52894 8.25277 1.9781 8.992C2.13471 9.24974 2.32444 9.46325 2.54246 9.63861C2.34967 9.89971 2.17996 10.1951 2.03489 10.5267C1.58913 11.5455 1.3833 12.8849 1.3833 14.5991C1.3833 16.7768 1.78222 18.3624 2.66297 19.4158C3.57639 20.5083 4.83394 20.828 6.04618 20.8722L21.3569 15.7775ZM15.766 2.95708C15.7661 2.95743 15.7624 2.95526 15.7549 2.94952C15.7622 2.95385 15.766 2.95672 15.766 2.95708ZM6.97142 2.95931C6.97147 2.95894 6.97532 2.95595 6.98283 2.95144C6.97513 2.95743 6.97138 2.95968 6.97142 2.95931ZM12.2399 14.0533L11.8378 14.2141L11.6799 14.6173L11.3832 15.3752L11.0867 14.6175L10.9289 14.2141L10.5267 14.0533L9.74534 13.7409L10.527 13.4281L10.9289 13.2673L11.0867 12.8641L11.3832 12.1065L11.6799 12.8643L11.8377 13.2673L12.2396 13.4281L13.0213 13.7409L12.2399 14.0533Z" fill="white" stroke="#161817" stroke-width="2"/>
</svg>
